<svg xmlns="http://www.w3.org/2000/svg" width="68" height="103" viewBox="0 0 68 103"><defs><linearGradient id="of0sa" x1="23.04" x2="51.36" y1="12.89" y2="11.25" gradientUnits="userSpaceOnUse"><stop offset="0" stop-color="#fbf9f7"/><stop offset="1" stop-color="#9f9c9a"/></linearGradient></defs><g><g><g><g><g opacity=".02"><g opacity=".02"><path fill="#b2afac" d="M60.078 97.345c0 2.107-11.301 5.19-25.241 5.19-13.938 0-25.239-3.083-25.239-5.19 0-2.108 11.301-3.105 25.239-3.105 13.94 0 25.24.997 25.24 3.105z"/></g></g><g opacity=".04"><g opacity=".04"><path fill="#b2afac" d="M60 97.348c0 2.096-11.265 5.163-25.163 5.163-13.896 0-25.161-3.067-25.161-5.163s11.265-3.085 25.16-3.085c13.9 0 25.164.989 25.164 3.085z"/></g></g><g opacity=".06"><g opacity=".06"><path fill="#b2afac" d="M59.92 97.35c0 2.085-11.229 5.138-25.083 5.138-13.852 0-25.08-3.053-25.08-5.137 0-2.085 11.228-3.068 25.08-3.068 13.854 0 25.083.983 25.083 3.068z"/></g></g><g opacity=".08"><g opacity=".08"><path fill="#b2afac" d="M59.842 97.353c0 2.074-11.195 5.113-25.005 5.113-13.808 0-25.003-3.04-25.003-5.113 0-2.073 11.195-3.047 25.003-3.047 13.81 0 25.005.974 25.005 3.047z"/></g></g><g opacity=".1"><g opacity=".1"><path fill="#b2afac" d="M59.765 97.356c0 2.062-11.16 5.087-24.928 5.087-13.766 0-24.926-3.025-24.926-5.087s11.16-3.027 24.926-3.027c13.768 0 24.928.965 24.928 3.027z"/></g></g><g opacity=".12"><g opacity=".12"><path fill="#b2afac" d="M59.684 97.36c0 2.05-11.123 5.06-24.847 5.06-13.722 0-24.848-3.01-24.848-5.06 0-2.054 11.126-3.008 24.848-3.008 13.724 0 24.847.954 24.847 3.007z"/></g></g><g opacity=".14"><g opacity=".14"><path fill="#b2afac" d="M59.607 97.362c0 2.04-11.09 5.035-24.77 5.035-13.678 0-24.768-2.996-24.768-5.035 0-2.04 11.09-2.988 24.768-2.988 13.68 0 24.77.949 24.77 2.988z"/></g></g><g opacity=".16"><g opacity=".16"><path fill="#b2afac" d="M59.53 97.365c0 2.028-11.055 5.01-24.693 5.01-13.636 0-24.69-2.982-24.69-5.01 0-2.03 11.054-2.968 24.69-2.968 13.638 0 24.692.937 24.692 2.968z"/></g></g><g opacity=".18"><g opacity=".18"><path fill="#b2afac" d="M59.452 97.365c0 2.016-11.021 4.987-24.615 4.987-13.592 0-24.613-2.97-24.613-4.987s11.021-2.945 24.613-2.945c13.594 0 24.615.928 24.615 2.945z"/></g></g><g opacity=".2"><g opacity=".2"><path fill="#b2afac" d="M59.371 97.368c0 2.005-10.982 4.961-24.534 4.961-13.55 0-24.532-2.956-24.532-4.961 0-2.005 10.982-2.925 24.532-2.925 13.552 0 24.534.92 24.534 2.925z"/></g></g><g opacity=".22"><g opacity=".22"><path fill="#b2afac" d="M59.294 97.37c0 1.994-10.95 4.936-24.457 4.936-13.506 0-24.455-2.942-24.455-4.935 0-1.994 10.95-2.906 24.455-2.906 13.508 0 24.457.912 24.457 2.906z"/></g></g><g opacity=".23"><g opacity=".23"><path fill="#b2afac" d="M59.216 97.373c0 1.983-10.915 4.91-24.38 4.91-13.46 0-24.376-2.927-24.376-4.91 0-1.982 10.916-2.885 24.377-2.885 13.464 0 24.38.903 24.38 2.885z"/></g></g><g opacity=".25"><g opacity=".25"><path fill="#b2afac" d="M59.136 97.376c0 1.971-10.877 4.885-24.3 4.885-13.419 0-24.296-2.914-24.296-4.885 0-1.97 10.877-2.865 24.297-2.865 13.422 0 24.299.894 24.299 2.865z"/></g></g><g opacity=".28"><g opacity=".28"><path fill="#b2afac" d="M59.058 97.38c0 1.959-10.843 4.858-24.221 4.858-13.376 0-24.22-2.9-24.22-4.859 0-1.96 10.844-2.845 24.22-2.845 13.378 0 24.221.886 24.221 2.845z"/></g></g><g opacity=".29"><g opacity=".29"><path fill="#b2afac" d="M58.98 97.382c0 1.948-10.81 4.833-24.143 4.833-13.331 0-24.142-2.885-24.142-4.833 0-1.948 10.81-2.825 24.142-2.825 13.333 0 24.144.877 24.144 2.825z"/></g></g><g opacity=".31"><g opacity=".31"><path fill="#b2afac" d="M58.9 97.385c0 1.936-10.771 4.807-24.063 4.807-13.29 0-24.064-2.87-24.064-4.807 0-1.937 10.774-2.806 24.064-2.806 13.292 0 24.064.87 24.064 2.806z"/></g></g><g opacity=".33"><g opacity=".33"><path fill="#b2afac" d="M58.823 97.388c0 1.925-10.738 4.782-23.986 4.782-13.245 0-23.984-2.857-23.984-4.782 0-1.926 10.739-2.786 23.984-2.786 13.248 0 23.986.86 23.986 2.786z"/></g></g><g opacity=".35"><g opacity=".35"><path fill="#b2afac" d="M58.745 97.39c0 1.914-10.705 4.76-23.908 4.76-13.204 0-23.906-2.846-23.906-4.76 0-1.913 10.702-2.765 23.906-2.765 13.203 0 23.908.852 23.908 2.765z"/></g></g><g opacity=".37"><g opacity=".37"><path fill="#b2afac" d="M58.668 97.393c0 1.9-10.67 4.731-23.831 4.731-13.16 0-23.829-2.831-23.829-4.73 0-1.903 10.67-2.746 23.829-2.746 13.162 0 23.83.843 23.83 2.745z"/></g></g><g opacity=".39"><g opacity=".39"><path fill="#b2afac" d="M58.588 97.396c0 1.888-10.634 4.708-23.751 4.708-13.115 0-23.748-2.82-23.748-4.708 0-1.891 10.633-2.725 23.748-2.725 13.117 0 23.75.834 23.75 2.725z"/></g></g><g opacity=".41"><g opacity=".41"><path fill="#b2afac" d="M58.51 97.399c0 1.877-10.597 4.682-23.673 4.682-13.074 0-23.67-2.805-23.67-4.682 0-1.88 10.596-2.706 23.67-2.706 13.076 0 23.673.826 23.673 2.706z"/></g></g><g opacity=".43"><g opacity=".43"><path fill="#b2afac" d="M58.432 97.402c0 1.865-10.564 4.656-23.595 4.656-13.03 0-23.593-2.79-23.593-4.656 0-1.868 10.564-2.686 23.593-2.686 13.031 0 23.595.818 23.595 2.686z"/></g></g><g opacity=".45"><g opacity=".45"><path fill="#b2afac" d="M58.352 97.405c0 1.854-10.528 4.63-23.515 4.63-12.985 0-23.516-2.776-23.516-4.63 0-1.857 10.531-2.666 23.516-2.666 12.987 0 23.515.809 23.515 2.666z"/></g></g><g opacity=".47"><g opacity=".47"><path fill="#b2afac" d="M58.275 97.405c0 1.845-10.492 4.608-23.438 4.608-12.944 0-23.435-2.763-23.435-4.608 0-1.843 10.491-2.643 23.435-2.643 12.946 0 23.438.8 23.438 2.643z"/></g></g><g opacity=".49"><g opacity=".49"><path fill="#b2afac" d="M58.197 97.408c0 1.834-10.459 4.582-23.36 4.582-12.9 0-23.358-2.748-23.358-4.582 0-1.832 10.459-2.624 23.358-2.624 12.901 0 23.36.792 23.36 2.624z"/></g></g><g opacity=".51"><g opacity=".51"><path fill="#b2afac" d="M58.12 97.41c0 1.823-10.426 4.557-23.283 4.557-12.858 0-23.28-2.734-23.28-4.557 0-1.82 10.422-2.606 23.28-2.606 12.857 0 23.282.786 23.282 2.606z"/></g></g><g opacity=".53"><g opacity=".53"><path fill="#b2afac" d="M58.04 97.413c0 1.809-10.388 4.532-23.203 4.532-12.813 0-23.2-2.723-23.2-4.532 0-1.808 10.387-2.586 23.2-2.586 12.815 0 23.202.778 23.202 2.586z"/></g></g><g opacity=".55"><g opacity=".55"><path fill="#b2afac" d="M57.962 97.416c0 1.797-10.354 4.506-23.125 4.506-12.769 0-23.122-2.709-23.122-4.506 0-1.797 10.353-2.566 23.122-2.566 12.771 0 23.125.769 23.125 2.566z"/></g></g><g opacity=".57"><g opacity=".57"><path fill="#b2afac" d="M57.884 97.419c0 1.786-10.317 4.48-23.047 4.48-12.727 0-23.045-2.694-23.045-4.48 0-1.786 10.318-2.546 23.045-2.546 12.73 0 23.047.76 23.047 2.546z"/></g></g><g opacity=".59"><g opacity=".59"><path fill="#b2afac" d="M57.804 97.422c0 1.774-10.282 4.454-22.967 4.454-12.683 0-22.965-2.68-22.965-4.454 0-1.775 10.282-2.526 22.965-2.526 12.685 0 22.967.751 22.967 2.526z"/></g></g><g opacity=".61"><g opacity=".61"><path fill="#b2afac" d="M57.726 97.425c0 1.763-10.248 4.428-22.89 4.428-12.638 0-22.886-2.665-22.886-4.428s10.248-2.507 22.887-2.507c12.64 0 22.89.744 22.89 2.507z"/></g></g><g opacity=".63"><g opacity=".63"><path fill="#b2afac" d="M57.649 97.427c0 1.752-10.213 4.404-22.812 4.404-12.597 0-22.81-2.652-22.81-4.404 0-1.751 10.213-2.486 22.81-2.486 12.6 0 22.812.735 22.812 2.486z"/></g></g><g opacity=".65"><g opacity=".65"><path fill="#b2afac" d="M57.568 97.43c0 1.74-10.176 4.378-22.731 4.378-12.553 0-22.732-2.638-22.732-4.378 0-1.74 10.179-2.466 22.732-2.466 12.555 0 22.731.726 22.731 2.466z"/></g></g><g opacity=".67"><g opacity=".67"><path fill="#b2afac" d="M57.49 97.433c0 1.729-10.142 4.352-22.653 4.352s-22.652-2.623-22.652-4.352 10.14-2.446 22.652-2.446c12.51 0 22.654.717 22.654 2.446z"/></g></g><g opacity=".69"><g opacity=".69"><path fill="#b2afac" d="M57.413 97.436c0 1.717-10.107 4.326-22.576 4.326-12.467 0-22.574-2.609-22.574-4.326 0-1.717 10.107-2.427 22.574-2.427 12.47 0 22.576.71 22.576 2.427z"/></g></g><g opacity=".71"><g opacity=".71"><path fill="#b2afac" d="M57.336 97.439c0 1.703-10.074 4.3-22.5 4.3-12.422 0-22.495-2.597-22.495-4.3 0-1.706 10.073-2.407 22.496-2.407 12.425 0 22.499.7 22.499 2.407z"/></g></g><g opacity=".73"><g opacity=".73"><path fill="#b2afac" d="M57.255 97.442c0 1.692-10.037 4.275-22.418 4.275-12.381 0-22.416-2.583-22.416-4.275 0-1.695 10.035-2.387 22.416-2.387 12.38 0 22.418.692 22.418 2.387z"/></g></g><g opacity=".75"><g opacity=".75"><path fill="#b2afac" d="M57.178 97.442c0 1.683-10.002 4.252-22.341 4.252-12.337 0-22.339-2.569-22.339-4.252 0-1.68 10.002-2.364 22.339-2.364 12.339 0 22.34.683 22.34 2.364z"/></g></g><g opacity=".76"><g opacity=".76"><path fill="#b2afac" d="M57.1 97.445c0 1.671-9.968 4.226-22.263 4.226-12.293 0-22.261-2.555-22.261-4.226 0-1.67 9.968-2.344 22.26-2.344 12.296 0 22.264.675 22.264 2.344z"/></g></g><g opacity=".78"><g opacity=".78"><path fill="#b2afac" d="M57.02 97.447c0 1.66-9.93 4.201-22.183 4.201-12.251 0-22.18-2.54-22.18-4.2 0-1.658 9.929-2.325 22.18-2.325 12.253 0 22.183.667 22.183 2.324z"/></g></g><g opacity=".8"><g opacity=".8"><path fill="#b2afac" d="M56.942 97.45c0 1.65-9.896 4.178-22.105 4.178-12.207 0-22.103-2.529-22.103-4.178 0-1.646 9.896-2.304 22.103-2.304 12.209 0 22.105.658 22.105 2.304z"/></g></g><g opacity=".82"><g opacity=".82"><path fill="#b2afac" d="M56.865 97.453c0 1.638-9.863 4.15-22.028 4.15S12.81 99.09 12.81 97.453c0-1.635 9.86-2.284 22.026-2.284 12.165 0 22.028.65 22.028 2.284z"/></g></g><g opacity=".84"><g opacity=".84"><path fill="#b2afac" d="M56.784 97.456c0 1.626-9.824 4.127-21.947 4.127-12.12 0-21.948-2.5-21.948-4.127 0-1.623 9.827-2.264 21.948-2.264 12.123 0 21.947.64 21.947 2.264z"/></g></g><g opacity=".86"><g opacity=".86"><path fill="#b2afac" d="M56.707 97.459c0 1.615-9.791 4.101-21.87 4.101-12.077 0-21.868-2.486-21.868-4.101 0-1.612 9.791-2.244 21.868-2.244 12.079 0 21.87.632 21.87 2.244z"/></g></g><g opacity=".88"><g opacity=".88"><path fill="#b2afac" d="M56.63 97.462c0 1.6-9.759 4.075-21.793 4.075-12.035 0-21.79-2.475-21.79-4.075 0-1.601 9.755-2.225 21.79-2.225 12.034 0 21.792.624 21.792 2.225z"/></g></g><g opacity=".9"><g opacity=".9"><path fill="#b2afac" d="M56.552 97.465c0 1.589-9.722 4.05-21.715 4.05-11.99 0-21.713-2.461-21.713-4.05 0-1.59 9.722-2.205 21.713-2.205 11.993 0 21.715.615 21.715 2.205z"/></g></g><g opacity=".92"><g opacity=".92"><path fill="#b2afac" d="M56.471 97.467c0 1.578-9.685 4.025-21.634 4.025-11.946 0-21.632-2.447-21.632-4.025 0-1.577 9.686-2.184 21.632-2.184 11.948 0 21.634.607 21.634 2.184z"/></g></g><g opacity=".94"><g opacity=".94"><path fill="#b2afac" d="M56.394 97.47c0 1.567-9.65 3.999-21.557 3.999-11.905 0-21.555-2.432-21.555-3.999 0-1.566 9.65-2.164 21.555-2.164 11.907 0 21.557.598 21.557 2.164z"/></g></g><g opacity=".96"><g opacity=".96"><path fill="#b2afac" d="M56.316 97.473c0 1.555-9.616 3.973-21.48 3.973-11.86 0-21.476-2.418-21.476-3.973 0-1.555 9.616-2.147 21.477-2.147 11.863 0 21.48.592 21.48 2.147z"/></g></g><g opacity=".98"><g opacity=".98"><path fill="#b2afac" d="M56.236 97.476c0 1.544-9.58 3.947-21.4 3.947-11.815 0-21.396-2.403-21.396-3.947 0-1.547 9.58-2.128 21.397-2.128 11.818 0 21.399.581 21.399 2.128z"/></g></g><g><g><path fill="#b2afac" d="M56.158 97.479c0 1.532-9.544 3.922-21.321 3.922-11.775 0-21.32-2.39-21.32-3.922 0-1.533 9.545-2.108 21.32-2.108 11.777 0 21.321.575 21.321 2.108z"/></g></g></g><g><g><path fill="#fbf9f7" d="M64.905 21.153c-.174 1.527-.349 3.025-.518 4.5l-4.625 40.013L56.12 97.18c-.582.925-2.247 1.66-4.47 2.233.786-8.975 1.071-21.444 2.149-33.747.988-11.256 1.659-24.183 2.966-40.013.122-1.475.25-2.973.382-4.5h7.758zm-60.173 0h16.91c.06 1.527.121 3.025.182 4.5.643 15.83 1.183 28.757 1.64 40.013H9.875C8.574 54.41 7.081 41.483 5.25 25.653c-.17-1.475-.344-2.973-.518-4.5zm8.786 76.027c.49 1.204 6.018 2.893 11.131 3.369-.362-8.974-.686-22.58-1.185-34.883H9.875c1.421 12.303 2.604 22.54 3.643 31.514zm8.306-71.527H5.25h16.574z"/></g></g></g><g transform="rotate(6 34 11.5)"><g><g><g><path fill="#353336" d="M54.849 3.424a36.373 36.373 0 0 0-.114-.948c2.103.174 6.669.531 7.16.77.05.29.099.583.147.877-.675-.216-5.057-.542-7.193-.699zm7.844 4.602c.277 1.642.556 3.328.846 5.066l-7.612-.021c-.243-1.738-.4-3.425-.627-5.066l7.393.021zM54.85 3.424c2.136.157 6.518.483 7.193.699.214 1.27.431 2.57.651 3.903l-7.393-.02c-.187-1.334-.3-3.126-.451-4.582zm-20.215-.539c6.708.02 14.246.098 20.215.54.151 1.455.264 3.247.45 4.58.227 1.641.385 3.328.628 5.066l-21.265-.061-10.68-.031c.085-1.737.216-3.423.294-5.063.063-1.333.149-3.431.22-5.003l.006-.163.037-.815v-.013c-7.353.09-16.385.363-17.165 1.167-.049.29-.095.583-.141.877-.208 1.27-.418 2.567-.63 3.9-.267 1.64-.537 3.324-.818 5.06l18.198.053c.084-1.737.215-3.423.293-5.063.063-1.333.149-3.431.22-5.003 4.234-.048 6.768-.038 10.138-.028l.014 5.06-.014-5.06c6.708.02 14.246.098 20.215.54a36.373 36.373 0 0 0-.114-.95c-5.875-.483-13.412-.568-20.104-.587l.003.997zM24.54 1.922c4.317-.05 6.73-.043 10.091-.034l.003.997c-3.37-.01-5.904-.02-10.139.028l.007-.163.037-.815v-.013zm-.557 11.057z"/></g></g><g><g><path fill="url(#of0sa)" d="M66.9 11.786c.335.158.488.335.558.577.045.163.054.356.055.596.001.583-.606 1.59-.604 2.177l-6.14-.018-9.37-.027.14-2.178 9.618.027c-.001-.239.04-.47.056-.68.024-.307-.01-.575-.312-.75.302.175.336.443.312.75-.016.21-.057.441-.056.68l-9.618-.027c0-.24.085-.484.123-.698-4.983-.014 0 0 0 0 .082-.447-.124-.635-.302-.883 4.304.069 8.312.14 9.54.178h.001c2.576.076 5.765.136 5.998.276zm-32.232 3.257l-7.543-.022c-.002-.586-.063-1.595-.065-2.178l7.602.021c0 .192 0 .428.002.681l.004 1.498-.004-1.498 16.734 1.546-16.73-.048zm-7.607-2.2l7.603.702-.002-.68-7.602-.022c.002.583.063 1.592.065 2.178l-3.952-.01c-.002-.588-.132-1.596-.134-2.18a443148.696 443148.696 0 0 0 4.022.012zm-4.022-.012c.002.584.132 1.592.134 2.18-1.459-.005-2.92-.01-4.379-.013-.001-.587-.226-1.596-.228-2.18l4.473.013zm11.618-1.687c4.872.014 11.187.1 16.703.188.178.248.384.436.302.883-5.216-.017-12.13-.034-17.002-.048l-.003-1.023zM1.889 12.15a.821.821 0 0 1 .528-.549c1.02-.487 7.974-.6 15.176-.594-.104.259.629.668.572 1.035-6.193-.034-12.347-.058-16.276.108zm16.276-.108c-.038.25.4.537.401.776L1.811 12.77c-.001-.24.02-.447.078-.62 3.93-.166 10.083-.142 16.276-.108zM2.427 14.951c5.455.015 10.912.03 16.367.047-.001-.587-.226-1.596-.228-2.18L1.811 12.77c.001.584.614 1.594.616 2.18z"/></g><g opacity=".44"><path fill="#444243" d="M62.032 16.531c-.087-.498-.707-.996-.709-1.494l5.602.016c.002.498.788.996.886 1.495l-5.78-.017zm-.709-1.494c.002.498.622.996.709 1.494l-27.36-.078-.004-1.493 26.655.077zm.709 1.494l5.78.017a.549.549 0 0 1 .008.097l.002.914.002.672-5.779-.017-.002-.672 5.78.017-5.78-.017-.002-.914a.545.545 0 0 0-.01-.097zm.011 1.011l.002.672-27.369-.078-11.747-.034-.002-.672-.002-.914 11.747.034.003.914-.003-.914 27.369.078.002.914-27.368-.078 27.368.078zm5.771-.897l-5.6-.016 5.6.016zM34.668 14.96l.004 1.492-11.745-.034c.027-.496.182-.989.182-1.485 0 .496-.155.99-.182 1.485l-.669-.002-20.705-.06h-.02c.095-.497.878-.99.877-1.489l20.699.06 11.559.032zM1.532 16.357h.02l20.706.06.67.001a1.092 1.092 0 0 0-.003.097l-21.4-.061c0-.035.002-.066.007-.097zm-.008.097l21.4.061.003.914-21.4-.061-.003-.914zm.005 1.586l21.4.061-.002-.672-21.4-.061.002.672z"/></g></g><g><path fill="#353336" d="M54.61 18.367c0-.1-.03-.248-.247-.3-6.534-.036-13.042-.074-19.687-.093v.299c6.645.019 13.29.058 19.935.094 0-.1-.032-.248-.248-.3 4.481.024 8.977.046 13.536.059.338.024.386.2.386.3 0 .1-.09.299-.384.298-4.56-.013-9.055-.035-13.536-.059-6.534-.036-13.043-.074-19.687-.093l-.001-.3c6.644.02 13.289.059 19.934.095zm-19.932.205c-5.061-.015-10.042-.015-15.017-.018-.111-.057-.17-.2-.17-.3 5.061.001 10.125.004 15.186.019v.299zm-15.019-.619c4.975.003 9.956.006 15.017.02v.3c-5.06-.015-10.124-.018-15.185-.018 0-.1.038-.242.168-.302zm-18.59.28c0-.1.09-.298.398-.298 6.143.018 12.16.018 18.192.018-.13.06-.168.202-.168.302-6.143-.004-12.282-.004-18.422-.022zm18.422.022c-6.143-.004-12.282-.004-18.422-.022 0 .1.14.3.4.3 6.143.018 12.16.018 18.192.021-.111-.057-.17-.2-.17-.3z"/></g></g></g><g><g transform="rotate(163 15 32.5)"><g><g><path fill="#c8936b" d="M18.349 29.759a5.09 5.09 0 0 1-1.086 1.588c-.57.572-1.38 1.134-2.529 1.537-2.33.819-2.98 2.16-3.162 2.809l.024.026c1.248 1.25 3.692.828 5.46-.943 1.573-1.577 2.079-3.69 1.293-5.017zm-7.128 5.464c.325-.81 1.168-2.03 3.352-2.799 2.384-.838 3.18-2.387 3.43-3.115-.003-.002-.004-.004-.005-.006-1.248-1.25-3.693-.828-5.46.944-1.558 1.56-2.07 3.646-1.317 4.976z"/></g></g></g><g transform="rotate(163 25 37.5)"><g><g><path fill="#c8936b" d="M28.118 34.659a5.09 5.09 0 0 1-1.086 1.589c-.57.571-1.38 1.133-2.529 1.537-2.33.818-2.98 2.159-3.162 2.808l.024.026c1.248 1.251 3.693.829 5.46-.943 1.573-1.576 2.08-3.69 1.293-5.017zm-7.128 5.464c.325-.81 1.168-2.03 3.352-2.798 2.384-.838 3.18-2.388 3.43-3.116l-.005-.005c-1.248-1.25-3.693-.828-5.46.943-1.557 1.56-2.07 3.646-1.317 4.976z"/></g></g></g><g transform="rotate(-128 17 48.5)"><g><g><path fill="#c8936b" d="M20.138 45.46a5.09 5.09 0 0 1-1.086 1.589c-.57.572-1.38 1.133-2.529 1.537-2.33.818-2.98 2.159-3.162 2.808l.024.027c1.248 1.25 3.692.828 5.46-.944 1.573-1.576 2.079-3.69 1.293-5.017zm-7.128 5.464c.325-.81 1.168-2.03 3.352-2.798 2.384-.838 3.18-2.388 3.43-3.116l-.006-.005c-1.248-1.25-3.692-.828-5.46.943-1.557 1.56-2.069 3.647-1.316 4.976z"/></g></g></g><g transform="rotate(-121 44.5 33)"><g><g><path fill="#c8936b" d="M48.079 30.363a5.09 5.09 0 0 1-1.086 1.59c-.57.57-1.38 1.132-2.528 1.536-2.33.819-2.981 2.16-3.163 2.809.009.008.016.017.024.026 1.248 1.25 3.693.828 5.46-.944 1.574-1.576 2.08-3.689 1.293-5.017zm-7.128 5.465c.326-.81 1.168-2.031 3.352-2.8 2.385-.837 3.18-2.387 3.43-3.115l-.005-.005c-1.248-1.25-3.692-.828-5.46.943-1.557 1.56-2.07 3.647-1.317 4.977z"/></g></g></g><g transform="rotate(-68 55 43.5)"><g><g><path fill="#c8936b" d="M58.551 40.847a5.09 5.09 0 0 1-1.086 1.589c-.57.572-1.38 1.133-2.528 1.537-2.33.818-2.981 2.159-3.163 2.808l.024.027c1.248 1.25 3.693.828 5.46-.944 1.573-1.576 2.08-3.69 1.293-5.017zm-7.128 5.464c.326-.81 1.168-2.03 3.352-2.798 2.384-.838 3.18-2.388 3.43-3.116l-.005-.005c-1.248-1.25-3.693-.828-5.46.943-1.557 1.56-2.07 3.647-1.317 4.976z"/></g></g></g><g transform="rotate(-65 26.5 69.5)"><g><g><path fill="#c8936b" d="M30.024 66.794a5.09 5.09 0 0 1-1.085 1.588c-.57.572-1.381 1.134-2.529 1.537-2.33.819-2.981 2.16-3.163 2.809l.025.026c1.248 1.25 3.692.828 5.46-.943 1.573-1.577 2.079-3.69 1.292-5.017zm-7.127 5.464c.325-.81 1.167-2.03 3.352-2.799 2.384-.838 3.18-2.387 3.43-3.115l-.006-.006c-1.248-1.25-3.692-.828-5.46.944-1.557 1.56-2.069 3.646-1.316 4.976z"/></g></g></g><g transform="rotate(-65 54.5 66.5)"><g><g><path fill="#c8936b" d="M56.758 64.762zm-.749 1.003c-.393.361-.952.716-1.744.97-1.608.518-2.057 1.365-2.182 1.775l.017.017c.86.79 2.547.523 3.767-.596 1.085-.996 1.434-2.33.891-3.17-.13.28-.357.645-.749 1.004zm-4.168 2.448zm0 0c.224-.511.806-1.283 2.312-1.768 1.645-.529 2.194-1.508 2.366-1.968l-.003-.003c-.861-.79-2.547-.523-3.767.596-1.074.986-1.427 2.303-.908 3.143z"/></g></g></g><g transform="rotate(-9 46 65)"><g><g><path fill="#c8936b" d="M48.777 63.264zm-.749 1.003c-.393.362-.952.716-1.744.971-1.607.517-2.057 1.364-2.182 1.774l.017.017c.86.79 2.547.523 3.767-.596 1.085-.996 1.434-2.33.891-3.17-.13.28-.357.645-.749 1.004zm-4.168 2.449zm0 0c.225-.512.806-1.283 2.312-1.768 1.645-.53 2.194-1.508 2.366-1.968l-.003-.004c-.86-.79-2.547-.523-3.767.596-1.074.986-1.427 2.303-.908 3.144z"/></g></g></g><g transform="rotate(-9 43 79)"><g><g><path fill="#c8936b" d="M45.725 77.264zm-.749 1.003c-.393.362-.952.716-1.744.971-1.607.517-2.056 1.364-2.182 1.774l.017.017c.86.79 2.547.523 3.767-.596 1.085-.996 1.434-2.33.891-3.17-.13.28-.357.645-.749 1.004zm-4.168 2.449zm0 0c.225-.512.806-1.283 2.313-1.768 1.644-.53 2.193-1.508 2.365-1.968 0-.002-.002-.003-.003-.004-.86-.79-2.547-.523-3.767.596-1.074.986-1.427 2.303-.908 3.144z"/></g></g></g><g transform="rotate(-99 21 92)"><g><g><path fill="#c8936b" d="M23.245 90.264zm-.75 1.003c-.393.362-.952.716-1.744.971-1.607.517-2.056 1.364-2.182 1.774l.017.017c.861.79 2.547.523 3.767-.596 1.085-.996 1.434-2.33.892-3.17-.13.28-.358.645-.75 1.004zm-4.167 2.449zm0 0c.224-.512.805-1.283 2.312-1.768 1.645-.53 2.193-1.508 2.366-1.968l-.004-.004c-.86-.79-2.547-.523-3.766.596-1.074.986-1.428 2.303-.908 3.144z"/></g></g></g><g transform="rotate(-73 33 89.5)"><g><g><path fill="#c8936b" d="M34.984 88.196c-.105.23-.288.53-.604.827-.318.298-.769.59-1.408.8-1.297.426-1.66 1.124-1.76 1.463l.013.013c.695.651 2.056.431 3.04-.491.875-.82 1.157-1.921.72-2.612zm-3.968 2.845c.181-.422.65-1.058 1.866-1.457 1.328-.437 1.77-1.243 1.91-1.623-.002 0-.002-.002-.003-.002-.695-.651-2.056-.432-3.04.49-.867.813-1.152 1.9-.733 2.592z"/></g></g></g><g transform="rotate(-45 20 81.5)"><g><g><path fill="#c8936b" d="M24.067 78.001a6.041 6.041 0 0 1-1.143 1.86c-.601.67-1.455 1.328-2.664 1.8-2.454.96-3.14 2.53-3.33 3.29l.025.03c1.314 1.465 3.889.97 5.75-1.104 1.658-1.847 2.19-4.321 1.362-5.876zm-3.977 3.122c2.511-.981 3.35-2.796 3.612-3.65l-.005-.005c-1.314-1.465-3.889-.97-5.75 1.105-1.64 1.827-2.18 4.27-1.387 5.827.342-.948 1.23-2.378 3.53-3.277z"/></g></g></g><g transform="rotate(-94 34 77.5)"><g><g><path fill="#c8936b" d="M36.848 74.933a4.948 4.948 0 0 1-.872 1.504c-.458.542-1.109 1.073-2.031 1.455-1.872.776-2.395 2.045-2.54 2.66l.019.025c1.002 1.184 2.966.784 4.386-.893 1.264-1.493 1.67-3.494 1.038-4.751zm-5.726 5.174c.262-.767.938-1.923 2.693-2.65 1.916-.793 2.555-2.261 2.755-2.95l-.004-.006c-1.002-1.184-2.966-.784-4.386.894-1.25 1.478-1.662 3.453-1.058 4.712z"/></g></g></g><g transform="rotate(-179 37.5 90.5)"><g><g><path fill="#c8936b" d="M40.266 87.682a5.128 5.128 0 0 1-.903 1.559c-.474.56-1.148 1.112-2.102 1.508-1.937.803-2.479 2.118-2.63 2.755l.02.026c1.038 1.227 3.07.812 4.54-.926 1.308-1.546 1.728-3.62 1.075-4.922zm-5.926 5.361c.27-.795.97-1.992 2.786-2.746 1.983-.822 2.644-2.342 2.852-3.056l-.004-.006c-1.038-1.226-3.07-.812-4.54.926-1.294 1.531-1.72 3.577-1.094 4.882z"/></g></g></g><g transform="rotate(-179 51.5 86)"><g><g><path fill="#c8936b" d="M54.002 84.167c-.133.31-.365.717-.765 1.116-.402.402-.973.796-1.783 1.08-1.642.575-2.101 1.517-2.229 1.973l.017.018c.88.879 2.603.582 3.85-.662 1.108-1.108 1.465-2.592.91-3.525zm-5.024 3.839zm0 0c.229-.57.823-1.427 2.363-1.966 1.68-.589 2.241-1.677 2.417-2.189l-.003-.004c-.88-.878-2.603-.581-3.85.663-1.097 1.096-1.458 2.562-.927 3.496z"/></g></g></g><g transform="rotate(-9 13 42.5)"><g><g><path fill="#c8936b" d="M14.232 41.39a1.54 1.54 0 0 1-.375.479 2.35 2.35 0 0 1-.873.463c-.804.247-1.029.65-1.091.846l.008.008c.43.377 1.275.25 1.885-.284.543-.475.717-1.112.446-1.512zm-1.303.803c.823-.252 1.097-.72 1.183-.939l-.001-.001c-.431-.377-1.275-.25-1.885.284-.537.47-.714 1.099-.454 1.5.112-.245.403-.612 1.157-.844z"/></g></g></g><g transform="rotate(-9 13.5 51.5)"><g><g><path fill="#c8936b" d="M14.502 50.39a1.54 1.54 0 0 1-.375.479 2.35 2.35 0 0 1-.873.463c-.804.247-1.029.65-1.091.846l.008.008c.43.377 1.275.25 1.885-.284.543-.475.717-1.112.446-1.512zm-1.303.803c.823-.252 1.097-.72 1.183-.939l-.001-.001c-.431-.377-1.275-.25-1.885.284-.537.47-.714 1.099-.454 1.5.112-.245.403-.612 1.157-.844z"/></g></g></g><g transform="rotate(-9 46.5 43.5)"><g><g><path fill="#c8936b" d="M47.554 42.77a1.54 1.54 0 0 1-.375.479 2.35 2.35 0 0 1-.872.463c-.805.247-1.03.65-1.092.846l.008.008c.431.377 1.275.25 1.885-.284.543-.475.718-1.112.446-1.512zm-1.303.803c.823-.252 1.097-.719 1.184-.938l-.002-.002c-.43-.377-1.275-.25-1.885.284-.537.47-.714 1.1-.454 1.5.112-.244.403-.612 1.157-.844z"/></g></g></g><g transform="rotate(-9 50 31)"><g><g><path fill="#c8936b" d="M51.45 30.259a1.54 1.54 0 0 1-.375.479 2.35 2.35 0 0 1-.873.463c-.804.246-1.029.65-1.092.846l.009.008c.43.377 1.274.25 1.885-.284.543-.475.717-1.112.446-1.512zm-1.304.803c.823-.252 1.098-.72 1.184-.939l-.001-.001c-.431-.377-1.275-.25-1.885.284-.538.47-.714 1.099-.455 1.5.113-.245.403-.612 1.157-.844z"/></g></g></g><g transform="rotate(-9 22 34.5)"><g><g><path fill="#c8936b" d="M23.055 33.667a1.54 1.54 0 0 1-.375.478 2.35 2.35 0 0 1-.873.464c-.804.246-1.029.65-1.091.846l.008.008c.43.377 1.275.25 1.885-.285.543-.475.717-1.111.446-1.511zm-1.303.803c.823-.252 1.097-.72 1.183-.939l-.001-.001c-.431-.377-1.275-.25-1.885.284-.538.47-.714 1.099-.455 1.5.113-.245.404-.613 1.157-.844z"/></g></g></g><g transform="rotate(-9 11 29)"><g><g><path fill="#c8936b" d="M12.305 28.286a1.54 1.54 0 0 1-.375.479 2.35 2.35 0 0 1-.872.463c-.805.247-1.03.65-1.092.846l.008.008c.431.377 1.275.25 1.885-.284.543-.475.718-1.112.446-1.512zm-1.303.803c.823-.252 1.097-.719 1.184-.938l-.002-.002c-.43-.377-1.275-.25-1.885.284-.537.47-.714 1.099-.454 1.5.112-.244.403-.612 1.157-.844z"/></g></g></g><g transform="rotate(56 15.5 76)"><g><g><path fill="#c8936b" d="M17.074 74.93c-.084.193-.23.445-.482.693-.254.249-.614.494-1.124.67-1.035.356-1.324.94-1.405 1.223l.01.012c.555.545 1.641.36 2.427-.411.698-.687.923-1.608.574-2.186zm-1.678 1.162c1.06-.365 1.413-1.04 1.524-1.357l-.002-.003c-.555-.544-1.64-.36-2.426.411-.692.68-.919 1.59-.585 2.169.145-.353.52-.885 1.49-1.22z"/></g></g></g><g transform="rotate(56 51.5 76)"><g><g><path fill="#c8936b" d="M53.335 74.93c-.084.193-.23.445-.483.693-.253.249-.613.494-1.123.67-1.035.356-1.324.94-1.405 1.223l.01.012c.555.545 1.641.36 2.426-.411.7-.687.924-1.608.575-2.186zm-1.678 1.162c1.06-.365 1.413-1.04 1.524-1.357l-.002-.003c-.555-.544-1.64-.36-2.426.411-.692.68-.92 1.59-.585 2.169.145-.353.519-.885 1.49-1.22z"/></g></g></g><g transform="rotate(56 38.5 73)"><g><g><path fill="#c8936b" d="M40.367 71.93c-.084.193-.23.445-.482.693-.253.249-.614.494-1.124.67-1.035.356-1.324.94-1.405 1.223l.011.012c.555.545 1.64.36 2.426-.411.699-.687.924-1.608.574-2.186zm-1.677 1.162c1.059-.365 1.412-1.04 1.523-1.357l-.002-.003c-.554-.544-1.64-.36-2.426.411-.691.68-.919 1.59-.584 2.169.144-.353.518-.885 1.489-1.22z"/></g></g></g></g><g><g><g><g><g><g><g><g><g><g><g><g><g><g><path d="M33.783 59.99l.26.056c.141.03.438.055.659.055.385 0 .402.008.441.205.023.112.041.548.041.968 0 .937-.184 1.74-.51 2.223-.125.183-.301.368-.393.41-.143.065-.195.047-.368-.128-.33-.333-.449-.884-.407-1.894.02-.472.09-1.091.157-1.376zm4.994-.646h.014c.056.015.357.047.667.072l.566.044.055.499c.134 1.217-.155 2.537-.674 3.08-.274.285-.414.29-.637.023-.296-.354-.433-1.031-.38-1.875.057-.921.25-1.82.39-1.843zm-8.367-3.051c.016 0 .02.012.009.037-.032.077-.155.412-.272.745-.26.735-.299 1.56-.094 2.03l.124.284-.305.271c-.167.15-.423.334-.567.41-.465.245-1.075.148-1.158-.185-.08-.32.039-1.256.202-1.6.083-.176.392-.56.686-.854.575-.574 1.267-1.14 1.375-1.138zm15.048-2.772c.158.001.19.169.077.492-.198.564-.891 1.393-1.537 1.837a6.328 6.328 0 0 1-.46.291c-.144.077-.158.069-.158-.095 0-.622.824-1.787 1.659-2.344.183-.122.323-.181.419-.18zm5.226-.699c.098-.003.155.054.171.17.052.366-.644 1.382-1.3 1.901-.215.17-.52.383-.679.473l-.288.163.052-.277c.129-.694.73-1.572 1.454-2.12.268-.202.463-.306.59-.31zm-9.235-4.208c-.22.011-.446.447-.887 1.585-.405 1.046-.997 2.85-1.25 3.814-.07.264-.28.724-.49 1.068-.202.333-.439.75-.526.926-.087.176-.328.486-.535.687-.311.304-.384.423-.424.691-.04.272-.112.385-.447.706-.22.21-.535.474-.701.584l-.302.201-.252-.296a4.822 4.822 0 0 0-.707-.624c-.38-.273-.447-.352-.408-.478.026-.083.535-1.326 1.13-2.762.595-1.437 1.154-2.831 1.242-3.1.317-.966.162-2.227-.281-2.29-.307-.044-.395.106-1.003 1.697a37.18 37.18 0 0 0-1.099 3.318c-.187.668-.327 1.013-.568 1.392-.176.276-.416.7-.534.94-.133.273-.318.516-.488.645-.295.224-.49.562-.49.848 0 .316-.718.792-.906.602-.04-.04-.003-.25.097-.541.232-.677.338-1.545.242-1.979-.086-.385-.215-.565-.448-.624-.134-.034-.152-.078-.129-.32.039-.409-.178-.539-.819-.492-1.544.113-3.451 2.279-3.601 4.09-.036.436-.042.447-.721 1.247-1.294 1.524-2.487 2.553-3.571 3.08-1.272.62-2.076.629-2.75.03-.603-.534-.858-1.637-.656-2.84.347-2.072 1.859-5.029 3.716-7.27 1.315-1.586 2.474-2.385 2.83-1.952.127.153.11.819-.031 1.257-.278.86-1.262 2.596-1.833 3.232l-.255.285.045-.338c.064-.483-.08-.446-.553.142-1.175 1.464-1.728 2.717-1.443 3.272.112.218.487.45.728.449.344-.001 1.159-.69 1.949-1.65 1.498-1.82 2.566-3.847 2.817-5.35.159-.955-.074-1.846-.605-2.316-.31-.274-.5-.326-1.021-.278-.853.077-2.102.835-3.317 2.01-1.92 1.859-4.029 5.145-4.802 7.485-.991 2.997-.246 5.603 1.736 6.074.47.111 1.31.084 1.871-.06 1.683-.434 3.37-1.883 5.371-4.615l.639-.871.16.347c.331.722 1.077 1.29 1.688 1.287.58-.003 1.203-.44 1.772-1.243.293-.414.327-.438.728-.521.428-.09 1.073-.514 1.171-.771.035-.09.09-.052.258.181l.213.297-.185.834c-.516 2.315-.523 3.39-.03 4.407.247.508.558.805.843.805.545 0 1.398-.928 2.048-2.228.555-1.112.674-1.647.617-2.783l-.043-.854.409-.396c.225-.218.508-.525.63-.681l.222-.285.181.214c.214.252.213.266-.113 1.744-.276 1.25-.323 2.598-.113 3.268.248.794.671 1.318 1.066 1.318.66 0 1.81-1.426 2.4-2.974.216-.565.222-.608.222-1.772.001-.656.02-1.193.045-1.193.024 0 .22-.171.436-.38.393-.38.393-.381.439-.196.081.332.463.85.785 1.065 1.074.717 2.594-.008 3.91-1.864l.384-.544.115.372c.379 1.222 1.07 1.729 2.099 1.539 1.019-.188 1.967-1.005 3.015-2.6.295-.449.329-.538.286-.766-.026-.141-.059-.257-.072-.257-.014 0-.314.287-.667.637-1.532 1.521-2.732 1.836-3.183.835-.226-.5-.203-.545.488-.952 1.817-1.07 2.907-2.26 2.907-3.172 0-.835-.485-1.084-1.493-.768-1.413.443-3.19 2.436-3.461 3.883-.073.386-.126.474-.548.914-1.547 1.614-2.959 1.854-3.249.552l-.064-.288.7-.433c1.423-.881 2.23-1.601 2.634-2.35.377-.698.29-1.395-.201-1.602-.328-.138-.502-.132-1.045.037-.63.196-1.262.627-1.933 1.316-1.016 1.045-1.544 2.038-1.612 3.034-.03.435-.046.47-.334.72-.166.146-.41.322-.54.393l-.24.128-.215-.27c-.173-.217-.517-.494-1.175-.948-.012-.009.342-.892.788-1.963 1.735-4.162 1.815-4.389 1.814-5.148 0-.528-.104-.927-.29-1.115-.08-.08-.154-.124-.227-.12z"/></g></g></g></g></g></g></g></g></g></g></g></g></g></g></g></g></svg>