<svg xmlns="http://www.w3.org/2000/svg" width="29" height="23" viewBox="0 0 29 23"><g><g><g><g><g><path fill="#acb0c5" d="M23.488 14.92c0 1.76 1.524 3.221 3.5 3.464v2.036c0 .551-.524 1-1.167 1h-14v-.875c0-.276-.261-.5-.583-.5-.323 0-.584.224-.584.5v.875H5.987c-.643 0-1.166-.449-1.166-1v-2.036c1.976-.243 3.5-1.704 3.5-3.464s-1.524-3.221-3.5-3.464V9.42c0-.551.523-1 1.166-1h4.667v1.125c0 .277.261.5.584.5.322 0 .583-.223.583-.5V8.42h14c.643 0 1.167.449 1.167 1v2.036c-1.976.243-3.5 1.704-3.5 3.464zm-19.25-2c-.534 0-1.067.095-1.568.277l-1.194-1.789c-.32-.478-.13-1.09.422-1.366l1.788-.892c-.014.09-.032.178-.032.27v2.5c0 .277.261.5.583.5 1.074 0 2.003.505 2.51 1.247a4.496 4.496 0 0 0-2.51-.747zM18.91 1.554c.264-.132.574-.169.867-.1.297.068.546.233.7.464l1.147 1.717c-1.021.656-1.636 1.684-1.636 2.785 0 .34.065.675.18 1H7.153zm8.661 10.866c.323 0 .584-.224.584-.5v-2.5c0-1.103-1.047-2-2.334-2h-4.39c-.168-.318-.276-.65-.276-1 0-.905.586-1.742 1.53-2.184a.522.522 0 0 0 .281-.303.439.439 0 0 0-.055-.384L21.49 1.42c-.31-.464-.812-.796-1.412-.933a2.63 2.63 0 0 0-1.755.201L1.31 9.178c-1.104.55-1.484 1.774-.848 2.727l1.47 2.202a.58.58 0 0 0 .36.235.67.67 0 0 0 .448-.055 3.23 3.23 0 0 1 1.496-.367c1.274 0 2.386.72 2.765 1.76-.378 1.005-1.467 1.74-2.765 1.74-.322 0-.583.224-.583.5v2.5c0 1.103 1.047 2 2.333 2h19.834c1.287 0 2.334-.897 2.334-2v-2.5c0-.276-.261-.5-.584-.5-1.608 0-2.916-1.122-2.916-2.5s1.308-2.5 2.916-2.5z"/></g><g><path fill="#acb0c5" d="M11.238 12.045c-.323 0-.584.224-.584.5v1c0 .276.261.5.584.5.322 0 .583-.224.583-.5v-1c0-.276-.261-.5-.583-.5z"/></g><g><path fill="#acb0c5" d="M11.238 16.045c-.323 0-.584.224-.584.5v1c0 .276.261.5.584.5.322 0 .583-.224.583-.5v-1c0-.276-.261-.5-.583-.5z"/></g><g><path fill="#acb0c5" d="M22.088 10.52c-.257-.164-.624-.12-.817.1l-7 8c-.194.22-.141.534.117.7.105.067.227.1.349.1a.619.619 0 0 0 .467-.2l7-8c.194-.22.142-.534-.116-.7z"/></g><g><path fill="#acb0c5" d="M15.904 11.42c.239 0 .584.39.584 1s-.345 1-.584 1c-.238 0-.583-.39-.583-1s.345-1 .583-1zm0 3c.982 0 1.75-.878 1.75-2 0-1.121-.768-2-1.75-2-.981 0-1.75.879-1.75 2 0 1.122.769 2 1.75 2z"/></g><g><path fill="#acb0c5" d="M20.571 18.42c-.238 0-.583-.39-.583-1s.345-1 .583-1 .584.39.584 1-.346 1-.584 1zm0-3c-.981 0-1.75.878-1.75 2 0 1.122.769 2 1.75 2 .982 0 1.75-.878 1.75-2 0-1.122-.768-2-1.75-2z"/></g></g></g></g></g></svg>