<?xml version="1.0" encoding="utf-8"?>
<!-- Generator: Adobe Illustrator 24.1.3, SVG Export Plug-In . SVG Version: 6.00 Build 0)  -->
<svg version="1.1" id="Layer_1" xmlns="http://www.w3.org/2000/svg" xmlns:xlink="http://www.w3.org/1999/xlink" x="0px" y="0px"
	 viewBox="0 0 595.28 841.89" style="enable-background:new 0 0 595.28 841.89;" xml:space="preserve">
<style type="text/css">
	.st0{fill:#00AEEF;}
	.st1{fill:#FAEF3F;}
	.st2{fill:#A3A3A3;}
</style>
<g>
	<path class="st0" d="M401.82,446.6c-8.48,0-16.13-1.81-22.93-5.5c-6.8-3.66-12.13-8.76-15.96-15.31s-5.73-13.97-5.73-22.25
		c0-8.28,1.9-15.65,5.73-22.14c3.83-6.49,9.16-11.59,15.96-15.25c6.8-3.66,14.46-5.5,22.93-5.5c8.59,0,16.3,1.84,23.1,5.5
		c6.8,3.66,12.13,8.76,15.96,15.25c3.83,6.49,5.73,13.86,5.73,22.14c0,2.13-0.11,4.17-0.37,6.15l-19.98,0.06l0,0
		c-16.61,0-31.86,0-48.73,0c4.2,23.05,33.76,26.84,44.05,5.92l19.42,9.92c-0.06,0.06-0.09,0.11-0.11,0.2
		c-3.83,6.55-9.16,11.65-15.96,15.31C418.12,444.78,410.41,446.6,401.82,446.6L401.82,446.6z M424.78,396.88
		c-0.74-13.35-13.95-19.9-24.6-19.28c-10.26,0.6-20.07,7.2-22.54,19.19C394.48,396.79,407.92,396.88,424.78,396.88L424.78,396.88z"
		/>
	<path class="st0" d="M105.57,350.5h24.21v81.98h53.72v19.36h-77.92C105.57,439.31,105.57,404.05,105.57,350.5L105.57,350.5z"/>
	<path class="st0" d="M212.61,446.6c-8.48,0-16.13-1.81-22.93-5.5c-6.8-3.66-12.13-8.76-15.93-15.31
		c-3.83-6.55-5.75-13.97-5.75-22.25c0-8.28,1.93-15.65,5.75-22.14c3.8-6.49,9.13-11.59,15.93-15.25c6.8-3.66,14.46-5.5,22.93-5.5
		c8.59,0,16.3,1.84,23.1,5.5c6.83,3.66,12.13,8.76,15.96,15.25c3.83,6.49,5.73,13.86,5.73,22.14c0,8.28-1.9,15.7-5.73,22.25
		c-3.83,6.55-9.13,11.65-15.96,15.31C228.91,444.78,221.2,446.6,212.61,446.6L212.61,446.6z M211.93,429.56
		c15.34,0,23.84-11.51,23.84-26.48c0-14.94-8.28-25.31-23.61-25.31c-7.23,0-12.7,1.96-17.38,6.77c-4.65,4.82-6.97,11.14-6.97,18.99
		c0,7.88,2.32,14.2,6.97,19.02C199.46,427.38,204.7,429.56,211.93,429.56L211.93,429.56z"/>
	<path class="st0" d="M446.04,437.19l8.56-18.11c10.29,8.48,45.81,17.63,45.81,2.24c0-7.6-13.21-8.53-18.88-9.44
		c-6.89-1.05-12.53-2.24-16.87-3.6c-10.23-3.2-16.13-10.57-16.13-21.37c0-7.97,3.34-14.34,9.98-19.11
		c14.14-10.12,37.62-8.22,58.39,0.09l-7.31,16.44c-8.56-5.5-41.41-13.38-41.87,1.64c-0.26,8.05,13.58,9.33,19.64,10.35
		c9.72,1.53,20.49,3.12,27.55,10.54c3.09,3.23,4.65,7.85,4.65,13.83c0,7.85-3.4,15.28-10.2,20.01
		C493.81,451.45,464.16,447.68,446.04,437.19L446.04,437.19z"/>
	<path class="st1" d="M308.34,389.88c-15.45-9.52-13.58-28.54-4.93-37.28c7.54-7.63,18-12.98,29.45-13.95
		c22.96-1.93,38.49,9.41,36.62,33.62c-2.21,29.4-25.14,90.88-67.15,90.88c-45.61,0-74.21-100.66-31.89-117.07
		c10.4-4.03,25.48-1.53,23.36,12.73c-0.26,1.81-17.6-4.34-22.82,15.82c-6.12,23.64,12.73,67.72,33.68,68.4
		c20.04,0.65,37.16-33.87,41.87-52.1c5.27-20.3,6.24-38.69-13.8-34.38C316.81,359.94,307.88,371.03,308.34,389.88L308.34,389.88z"/>
	<path class="st0" d="M229.65,297.41c-0.11-0.34-0.37-0.6-0.77-0.77c-0.37-0.17-0.74-0.2-1.08-0.06c-0.34,0.14-0.62,0.43-0.79,0.85
		l-5.27,11.85l-5.27-11.82c-0.2-0.43-0.45-0.71-0.79-0.85c-0.34-0.14-0.71-0.11-1.11,0.06c-0.37,0.17-0.62,0.43-0.77,0.77
		c-0.11,0.37-0.09,0.74,0.11,1.16l6.21,13.95c0.03,0.06,0.06,0.11,0.09,0.17l-2.47,5.53c-0.2,0.43-0.23,0.26-0.09,0.6
		c0.11,0.34,0.37,0.6,0.77,0.77c0.37,0.17,0.74,0.2,1.08,0.06c0.34-0.14,0.6-0.43,0.79-0.85l9.27-20.24
		C229.73,298.15,229.79,297.78,229.65,297.41L229.65,297.41z M210.88,313.26c0.26-0.26,0.4-0.62,0.4-1.08v-11.03
		c0-1.56-0.48-2.75-1.47-3.54s-2.41-1.19-4.28-1.19c-0.57,0-1.19,0.06-1.84,0.2c-0.68,0.17-1.28,0.37-1.81,0.62
		c-0.57,0.28-1.02,0.6-1.39,0.94c-0.37,0.37-0.57,0.77-0.57,1.22c0,0.28,0.11,0.57,0.31,0.79c0.23,0.23,0.54,0.34,0.96,0.34
		c0.28,0,0.57-0.09,0.82-0.26c0.23-0.2,0.51-0.4,0.79-0.6c0.31-0.23,0.65-0.43,1.08-0.6c0.43-0.17,0.96-0.26,1.64-0.26
		c0.91,0,1.64,0.17,2.18,0.51c0.54,0.34,0.82,0.88,0.82,1.62v2.07h-0.4c-1.08,0-2.21,0.06-3.4,0.14c-1.19,0.11-2.3,0.34-3.32,0.74
		c-1.02,0.37-1.84,0.94-2.52,1.7c-0.65,0.77-0.96,1.81-0.96,3.12c0,0.85,0.14,1.62,0.48,2.24c0.31,0.62,0.74,1.13,1.28,1.53
		s1.16,0.71,1.87,0.88c0.71,0.2,1.45,0.28,2.21,0.28c0.85,0,1.67-0.17,2.49-0.51c0.82-0.34,1.56-0.91,2.15-1.7l0.06,0.06v0.68
		c0,0.45,0.14,0.82,0.4,1.08c0.26,0.28,0.6,0.4,1.02,0.4S210.65,313.54,210.88,313.26L210.88,313.26z M208.53,306.77
		c0,0.77-0.11,1.42-0.34,1.96c-0.23,0.57-0.54,1.02-0.91,1.42c-0.4,0.37-0.82,0.62-1.36,0.82c-0.51,0.2-1.08,0.28-1.64,0.28
		c-0.48,0-0.91-0.03-1.33-0.14c-0.43-0.09-0.82-0.23-1.13-0.43c-0.34-0.23-0.6-0.48-0.79-0.79c-0.2-0.31-0.31-0.71-0.31-1.16
		c0-0.91,0.23-1.59,0.62-2.04c0.43-0.48,0.96-0.85,1.64-1.05c0.68-0.23,1.47-0.37,2.32-0.4c0.85-0.03,1.73-0.03,2.61-0.03h0.62
		V306.77z M196.79,300.76c0.37-0.85,0.54-1.76,0.54-2.78c0-0.96-0.17-1.87-0.51-2.75c-0.34-0.85-0.82-1.62-1.45-2.27
		c-0.65-0.65-1.42-1.16-2.3-1.53c-0.91-0.37-1.93-0.54-3.06-0.54h-5.53c-0.54,0-0.91,0.14-1.13,0.43c-0.26,0.31-0.37,0.68-0.37,1.11
		v19.76c0,0.45,0.14,0.82,0.4,1.08c0.26,0.28,0.6,0.4,1.02,0.4c0.43,0,0.74-0.11,0.99-0.4c0.26-0.26,0.4-0.62,0.4-1.08v-7.14h4.31
		c1.05,0,1.98-0.17,2.86-0.54s1.64-0.85,2.3-1.5C195.91,302.37,196.42,301.63,196.79,300.76L196.79,300.76z M194.55,297.98
		c0,0.65-0.11,1.25-0.34,1.81c-0.23,0.57-0.54,1.08-0.96,1.47c-0.4,0.43-0.88,0.74-1.45,0.99c-0.57,0.26-1.19,0.37-1.9,0.37h-4.11
		v-9.33h4c0.85,0,1.59,0.14,2.21,0.43c0.6,0.28,1.08,0.65,1.47,1.11c0.37,0.43,0.65,0.94,0.82,1.5
		C194.47,296.9,194.55,297.44,194.55,297.98L194.55,297.98z M178.99,313.26c0.23-0.26,0.37-0.62,0.37-1.08V292.2
		c0-0.48-0.14-0.85-0.37-1.11c-0.26-0.26-0.6-0.4-1.02-0.4s-0.77,0.14-1.02,0.4c-0.26,0.26-0.4,0.62-0.4,1.11v19.98
		c0,0.45,0.14,0.82,0.4,1.08c0.26,0.28,0.6,0.4,1.02,0.4S178.74,313.54,178.99,313.26L178.99,313.26z M172.56,313.26
		c0.26-0.26,0.37-0.62,0.37-1.08v-11.03c0-1.56-0.48-2.75-1.47-3.54s-2.41-1.19-4.25-1.19c-0.6,0-1.19,0.06-1.87,0.2
		c-0.65,0.17-1.28,0.37-1.81,0.62c-0.57,0.28-1.02,0.6-1.39,0.94c-0.37,0.37-0.57,0.77-0.57,1.22c0,0.28,0.11,0.57,0.34,0.79
		c0.2,0.23,0.51,0.34,0.94,0.34c0.31,0,0.57-0.09,0.82-0.26c0.23-0.2,0.51-0.4,0.79-0.6c0.31-0.23,0.65-0.43,1.08-0.6
		s0.99-0.26,1.67-0.26c0.91,0,1.62,0.17,2.15,0.51c0.54,0.34,0.82,0.88,0.82,1.62v2.07h-0.4c-1.08,0-2.21,0.06-3.4,0.14
		c-1.19,0.11-2.3,0.34-3.32,0.74c-1.02,0.37-1.84,0.94-2.49,1.7c-0.65,0.77-0.99,1.81-0.99,3.12c0,0.85,0.17,1.62,0.48,2.24
		s0.74,1.13,1.28,1.53c0.54,0.4,1.16,0.71,1.87,0.88c0.71,0.2,1.45,0.28,2.21,0.28c0.85,0,1.67-0.17,2.49-0.51s1.56-0.91,2.15-1.7
		l0.09,0.06v0.68c0,0.45,0.11,0.82,0.37,1.08c0.26,0.28,0.6,0.4,1.02,0.4C171.96,313.65,172.3,313.54,172.56,313.26L172.56,313.26z
		 M170.18,306.77c0,0.77-0.11,1.42-0.34,1.96c-0.23,0.57-0.51,1.02-0.91,1.42c-0.37,0.37-0.82,0.62-1.33,0.82
		c-0.54,0.2-1.08,0.28-1.67,0.28c-0.48,0-0.91-0.03-1.33-0.14c-0.43-0.09-0.79-0.23-1.13-0.43c-0.34-0.23-0.6-0.48-0.79-0.79
		c-0.2-0.31-0.31-0.71-0.31-1.16c0-0.91,0.23-1.59,0.62-2.04c0.43-0.48,0.96-0.85,1.64-1.05c0.71-0.23,1.47-0.37,2.32-0.4
		c0.85-0.03,1.73-0.03,2.61-0.03h0.62V306.77z M156.43,293.64c0.31-0.34,0.48-0.74,0.48-1.22c0-0.51-0.17-0.91-0.48-1.25
		c-0.34-0.31-0.74-0.48-1.22-0.48s-0.91,0.17-1.22,0.48c-0.34,0.34-0.51,0.74-0.51,1.25c0,0.48,0.17,0.88,0.51,1.22
		c0.31,0.31,0.74,0.48,1.22,0.48S156.09,293.95,156.43,293.64L156.43,293.64z M150.87,299.34c0.2-0.26,0.31-0.51,0.31-0.79
		c0-0.6-0.4-1.08-1.19-1.5c-0.79-0.43-1.9-0.62-3.34-0.62c-1.3,0-2.41,0.23-3.37,0.71c-0.94,0.48-1.73,1.11-2.38,1.9
		c-0.62,0.82-1.11,1.73-1.39,2.78c-0.31,1.02-0.48,2.1-0.48,3.23c0,1.11,0.17,2.21,0.48,3.23c0.28,1.05,0.77,1.96,1.39,2.75
		c0.65,0.82,1.45,1.45,2.38,1.93c0.96,0.48,2.07,0.71,3.37,0.71c1.45,0,2.55-0.23,3.32-0.68c0.74-0.48,1.13-0.96,1.13-1.5
		c0-0.37-0.11-0.68-0.31-0.88s-0.45-0.28-0.77-0.28c-0.26,0-0.45,0.03-0.65,0.14c-0.17,0.09-0.4,0.2-0.65,0.31
		c-0.23,0.14-0.51,0.26-0.85,0.34c-0.31,0.11-0.74,0.14-1.22,0.14c-0.88,0-1.62-0.17-2.21-0.57c-0.62-0.37-1.13-0.88-1.5-1.47
		c-0.37-0.6-0.65-1.28-0.85-1.98c-0.17-0.74-0.26-1.47-0.26-2.18c0-0.71,0.09-1.45,0.26-2.18c0.2-0.71,0.48-1.39,0.85-1.98
		c0.37-0.6,0.88-1.11,1.5-1.47c0.6-0.4,1.33-0.57,2.21-0.57c0.45,0,0.85,0.03,1.16,0.14c0.34,0.09,0.6,0.2,0.82,0.28
		c0.26,0.11,0.48,0.23,0.68,0.31c0.2,0.09,0.45,0.14,0.74,0.14C150.39,299.71,150.64,299.59,150.87,299.34L150.87,299.34z
		 M136.36,308.27c0.34-1.02,0.48-2.13,0.48-3.23c0-1.13-0.14-2.21-0.48-3.23c-0.31-1.05-0.79-1.96-1.45-2.78
		c-0.62-0.79-1.42-1.42-2.32-1.9s-1.98-0.71-3.15-0.71c-1.19,0-2.24,0.23-3.17,0.71c-0.91,0.48-1.7,1.11-2.32,1.9
		c-0.62,0.82-1.11,1.73-1.45,2.78c-0.31,1.02-0.48,2.1-0.48,3.23c0,1.11,0.17,2.21,0.48,3.23c0.34,1.05,0.82,1.96,1.45,2.75
		c0.62,0.82,1.42,1.45,2.32,1.93c0.94,0.48,1.98,0.71,3.17,0.71c1.16,0,2.24-0.23,3.15-0.71c0.91-0.48,1.7-1.11,2.32-1.93
		C135.56,310.22,136.05,309.32,136.36,308.27L136.36,308.27z M134.06,305.04c0,0.71-0.09,1.45-0.23,2.18
		c-0.17,0.71-0.43,1.39-0.79,1.98c-0.37,0.6-0.85,1.11-1.45,1.47c-0.6,0.4-1.33,0.57-2.15,0.57c-0.88,0-1.62-0.17-2.18-0.57
		c-0.6-0.37-1.05-0.88-1.42-1.47c-0.37-0.6-0.65-1.28-0.79-1.98c-0.17-0.74-0.26-1.47-0.26-2.18c0-0.71,0.09-1.45,0.26-2.18
		c0.14-0.71,0.43-1.39,0.79-1.98c0.37-0.6,0.82-1.11,1.42-1.47c0.57-0.4,1.3-0.57,2.18-0.57c0.82,0,1.56,0.17,2.15,0.57
		c0.6,0.37,1.08,0.88,1.45,1.47c0.37,0.6,0.62,1.28,0.79,1.98C133.98,303.59,134.06,304.33,134.06,305.04L134.06,305.04z
		 M119.78,309.23c0.34-0.88,0.51-1.79,0.51-2.69c0-1.28-0.28-2.3-0.79-3.06c-0.54-0.79-1.19-1.42-1.98-1.87
		c-0.79-0.48-1.67-0.88-2.61-1.16c-0.91-0.31-1.79-0.62-2.58-0.96s-1.45-0.74-1.98-1.22c-0.51-0.48-0.79-1.13-0.79-1.96
		c0-0.94,0.34-1.73,1.02-2.32c0.68-0.57,1.53-0.88,2.58-0.88c0.68,0,1.25,0.09,1.7,0.23c0.43,0.14,0.79,0.31,1.11,0.51
		c0.31,0.2,0.57,0.37,0.79,0.51c0.26,0.14,0.51,0.23,0.82,0.23c0.37,0,0.65-0.14,0.88-0.37c0.23-0.26,0.34-0.54,0.34-0.88
		c0-0.37-0.17-0.71-0.48-1.02c-0.31-0.31-0.74-0.6-1.25-0.82c-0.51-0.26-1.11-0.45-1.79-0.6c-0.65-0.11-1.33-0.2-2.04-0.2
		c-1.05,0-1.98,0.17-2.81,0.54c-0.85,0.37-1.53,0.82-2.1,1.39c-0.57,0.57-1.02,1.19-1.3,1.87c-0.31,0.68-0.45,1.36-0.45,2.01
		c0,1.22,0.26,2.21,0.79,2.92c0.54,0.74,1.19,1.33,1.98,1.79c0.79,0.45,1.64,0.82,2.58,1.13c0.94,0.28,1.79,0.6,2.58,0.94
		s1.47,0.77,1.98,1.28c0.54,0.51,0.79,1.22,0.79,2.1c0,0.62-0.09,1.22-0.31,1.79c-0.2,0.54-0.51,1.02-0.91,1.45
		s-0.91,0.77-1.47,0.99c-0.57,0.26-1.22,0.37-1.93,0.37c-0.71,0-1.33-0.09-1.87-0.26c-0.54-0.2-0.99-0.4-1.42-0.62
		c-0.4-0.2-0.77-0.4-1.05-0.6c-0.31-0.17-0.57-0.26-0.79-0.26c-0.43,0-0.71,0.14-0.91,0.43c-0.17,0.28-0.28,0.62-0.28,0.99
		c0,0.4,0.2,0.77,0.57,1.11c0.37,0.31,0.85,0.6,1.45,0.85c0.62,0.23,1.28,0.43,2.04,0.57c0.74,0.14,1.5,0.2,2.24,0.2
		c1.22,0,2.32-0.2,3.26-0.57c0.96-0.4,1.76-0.94,2.41-1.59C118.93,310.85,119.44,310.08,119.78,309.23L119.78,309.23z M99.48,300.5
		c0-12.19-9.89-22.08-22.08-22.08s-22.08,9.89-22.08,22.08c0,5.9,2.32,11.28,6.09,15.22c-1.64,2.64-3.63,4.96-6.09,6.86
		c4.08,0.82,9.3,0.23,14.23-1.42c2.44,0.91,5.07,1.42,7.85,1.42C89.59,322.58,99.48,312.72,99.48,300.5L99.48,300.5z M97.21,300.5
		c0,10.94-8.87,19.81-19.81,19.81c-2.41,0-4.79-0.43-7.06-1.3l-0.77-0.28l-0.77,0.26c-2.47,0.82-5.36,1.47-8.16,1.64
		c0.99-1.13,1.87-2.38,2.69-3.69l0.94-1.5l-1.22-1.28c-3.51-3.71-5.44-8.56-5.44-13.66c0-10.94,8.84-19.79,19.79-19.79
		S97.21,289.56,97.21,300.5L97.21,300.5z M87.72,293.98c0-0.51,0-0.99,0-1.5c0-0.88-0.71-1.53-1.56-1.53c-5.84,0-11.68,0-17.49,0
		c-0.88,0-1.56,0.65-1.59,1.53c0,0.51,0,0.99,0,1.5c0.03,0.85,0.71,1.53,1.59,1.53h5.75c0.37,0,0.68,0.28,0.68,0.68v3.06
		c-1.47,0.43-3,0.79-4.48,1.19c-0.85,0.23-1.36,1.05-1.13,1.87c0.11,0.48,0.26,0.96,0.37,1.45c0.26,0.85,1.08,1.3,1.96,1.08
		l3.29-0.88v2.07c-1.5,0.4-2.98,0.79-4.48,1.19c-0.85,0.23-1.36,1.05-1.13,1.9c0.11,0.48,0.26,0.94,0.37,1.42
		c0.26,0.82,1.08,1.3,1.96,1.08l3.29-0.88v2.78c0,0.88,0.68,1.56,1.56,1.59c0.48,0,0.99,0,1.5,0c0.88-0.03,1.53-0.71,1.53-1.59v-4
		l4.51-1.19c0.85-0.23,1.33-1.05,1.13-1.87c-0.14-0.48-0.26-0.96-0.4-1.45c-0.26-0.85-1.08-1.3-1.93-1.08
		c-1.11,0.28-2.21,0.6-3.32,0.88v-2.07l3.94-1.05l0.57-0.14c0.85-0.23,1.33-1.05,1.13-1.9c-0.14-0.45-0.28-0.94-0.4-1.42
		c-0.26-0.85-1.08-1.3-1.93-1.08c-0.28,0.09-3.32,0.88-3.32,0.88v-1.84c0-0.4,0.31-0.68,0.71-0.68h5.75
		C87.04,295.51,87.72,294.83,87.72,293.98L87.72,293.98z M154.19,296.82c-0.26,0.26-0.37,0.62-0.37,1.08v14.29
		c0,0.45,0.11,0.82,0.37,1.08c0.26,0.28,0.6,0.4,1.02,0.4c0.43,0,0.77-0.11,1.02-0.4c0.26-0.26,0.37-0.62,0.37-1.08v-14.29
		c0-0.45-0.11-0.82-0.37-1.08c-0.26-0.28-0.6-0.4-1.02-0.4C154.78,296.42,154.44,296.53,154.19,296.82L154.19,296.82z"/>
	<path class="st2" d="M239.28,528.18c12.05,0,32.09-14.85,36.71-17.72c0.2-0.06,0.26-0.26,0.26-0.37l-0.11-0.28
		c-0.09-0.11-0.14-0.11-0.26-0.11c-0.14,0-0.28,0-0.48,0.11c-3.88,2.55-24.8,17.12-36.17,17.12c-1.25,0-2.35-0.11-3.34-0.51
		c-3.97-1.45-5.39-4.82-5.39-8.53c0-3.17,1.05-6.63,2.32-9.5c5.87-12.56,18.11-23.84,30.47-29.57c4.42-2.01,8.53-3.17,11.65-3.17
		c1.56,0,2.86,0.31,3.86,0.91c0.91,0.51,1.3,1.42,1.3,2.47c0,3-2.81,7.29-4.42,8.99c-0.09,0.14-0.14,0.26-0.14,0.4
		c0,0.26,0.26,0.57,0.6,0.57c0.11,0,0.26-0.06,0.37-0.17c1.9-1.96,4.71-6.38,4.71-9.78c0-1.16-0.34-2.21-1.19-3
		c-1.11-1.02-2.86-1.47-4.93-1.47c-3.51,0-7.94,1.3-12.25,3.23c-12.7,5.81-25,17.12-31.12,30.16c-1.42,2.98-2.41,6.58-2.41,9.89
		c0,4.17,1.64,7.99,6.12,9.69C236.62,527.98,237.84,528.18,239.28,528.18L239.28,528.18z M278.74,520.04c2.75,0,6.18-3.26,7.88-5.61
		c0.71,0.4,1.62,0.6,2.61,0.6c4.22,0,10.2-3.17,12.36-4.56c0.2-0.11,0.26-0.26,0.26-0.37c0.09-0.09-0.17-0.48-0.37-0.4
		c-0.09,0-0.14,0-0.34,0.11c-2.27,1.45-7.99,4.05-11.71,4.05c-0.85,0-1.56-0.14-2.15-0.4c0.51-0.91,0.85-1.96,0.85-2.86
		s-0.4-1.76-1.3-2.15c-0.26-0.11-0.45-0.11-0.71-0.11c-0.99,0-1.76,0.96-1.76,2.27c0,0.96,0.37,2.15,1.42,3.12
		c-0.91,1.5-4.76,5.27-6.97,5.27h-0.11c-0.91-0.06-1.19-0.51-1.19-1.22c0-1.3,1.13-3.26,1.64-3.91c1.11-1.56,2.66-2.95,4.22-3.91
		c0.2-0.14,0.26-0.26,0.26-0.45c0-0.26-0.26-0.6-0.57-0.6l-0.26,0.09c-2.49,1.47-4.25,3.51-5.36,5.33
		c-0.45,0.77-1.05,2.27-1.05,3.51c0,0.91,0.34,1.76,1.39,2.07C278.09,520.04,278.43,520.04,278.74,520.04L278.74,520.04z
		 M286.37,512.67c-0.54-0.45-0.91-1.42-0.91-2.13c0-0.6,0.2-1.05,0.71-1.05h0.14c0.31,0.06,0.62,0.51,0.62,1.25
		C286.93,511.26,286.82,511.91,286.37,512.67L286.37,512.67z M287.76,546.55c3.57,0,7.8-6.12,9.44-8.73
		c2.86-5.02,5.13-11.45,5.13-17.57c0-0.65-0.06-1.36-0.06-2.01l0.51-0.74c0.85,0.14,1.76,0.28,2.75,0.28
		c7.14,0,17.18-3.86,22.31-7.31c0.2-0.11,0.34-0.31,0.34-0.45l-0.09-0.2c-0.06-0.11-0.17-0.11-0.31-0.11c-0.06,0-0.2,0-0.31,0.11
		c-5.1,3.34-14.85,6.77-21.77,6.77c-0.71,0-1.47-0.06-2.13-0.11c2.21-2.95,3.88-5.16,4.54-5.92c3.6-2.61,29.37-21.29,29.37-26.9
		c0-0.31-0.11-0.65-0.26-0.85c-0.31-0.37-0.79-0.57-1.36-0.57c-7.11,0-31.07,30.73-33.53,33.96c-0.4-0.11-0.65-0.26-0.91-0.26h-0.14
		c-0.37,0.09-0.45,0.34-0.45,0.6c0,0.45,0.2,0.96,0.2,1.25v0.11c-1.9,2.55-15.56,20.38-15.56,26.5c0,0.85,0.26,1.42,0.85,1.76
		C286.76,546.41,287.22,546.55,287.76,546.55L287.76,546.55z M311.17,506.89c2.35-2.86,20.07-23.64,24.43-23.64
		c0.17,0,0.37,0.09,0.57,0.2c0.14,0.14,0.14,0.26,0.14,0.45C336.31,487.5,313.47,505.13,311.17,506.89L311.17,506.89z M287.81,545.5
		c-0.34,0-0.65-0.06-0.85-0.26c-0.31-0.2-0.45-0.54-0.45-1.05c0-4.76,12.9-22.25,14.66-24.55v0.91c0,5.81-2.3,11.99-5.02,16.67
		C295.24,538.78,290.62,545.5,287.81,545.5L287.81,545.5z M314.06,546.55c3.57,0,7.82-6.12,9.44-8.73
		c2.86-5.02,5.13-11.45,5.13-17.57c0-0.65-0.06-1.36-0.06-2.01l0.51-0.74c0.85,0.14,1.76,0.28,2.75,0.28
		c7.17,0,17.18-3.86,22.34-7.31c0.2-0.11,0.31-0.31,0.31-0.45l-0.06-0.2c-0.06-0.11-0.2-0.11-0.34-0.11c-0.06,0-0.2,0-0.31,0.11
		c-5.07,3.34-14.85,6.77-21.74,6.77c-0.71,0-1.5-0.06-2.15-0.11c2.21-2.95,3.91-5.16,4.56-5.92c3.57-2.61,29.37-21.29,29.37-26.9
		c0-0.31-0.14-0.65-0.28-0.85c-0.31-0.37-0.77-0.57-1.36-0.57c-7.09,0-31.04,30.73-33.53,33.96c-0.37-0.11-0.65-0.26-0.91-0.26
		h-0.11c-0.4,0.09-0.45,0.34-0.45,0.6c0,0.45,0.17,0.96,0.17,1.25v0.11c-1.87,2.55-15.53,20.38-15.53,26.5
		c0,0.85,0.26,1.42,0.82,1.76C313.1,546.41,313.55,546.55,314.06,546.55L314.06,546.55z M337.5,506.89
		c2.32-2.86,20.04-23.64,24.41-23.64c0.2,0,0.4,0.09,0.6,0.2c0.11,0.14,0.11,0.26,0.11,0.45
		C362.62,487.5,339.77,505.13,337.5,506.89L337.5,506.89z M314.12,545.5c-0.31,0-0.65-0.06-0.85-0.26c-0.31-0.2-0.45-0.54-0.45-1.05
		c0-4.76,12.9-22.25,14.66-24.55v0.91c0,5.81-2.27,11.99-5.02,16.67C321.55,538.78,316.93,545.5,314.12,545.5L314.12,545.5z
		 M359.64,519.85c4.51,0,12.3-4.48,17.12-7.43c-0.77,1.19-1.42,2.55-1.42,3.86c0,0.85,0.31,1.62,1.11,2.21
		c0.57,0.45,1.3,0.65,2.21,0.65c4.54,0,12.61-5.22,17.97-8.67c0.26-0.11,0.31-0.26,0.31-0.45l-0.06-0.2
		c-0.09-0.06-0.2-0.11-0.34-0.11c-0.11,0-0.26,0.06-0.4,0.11c-5.13,3.26-13.41,8.28-17.43,8.28c-0.65,0-1.16-0.14-1.56-0.45
		c-0.51-0.34-0.65-0.85-0.65-1.36c0-1.76,1.9-4.11,2.66-5.02c0.51,0.4,1.25,0.6,2.01,0.6c1.96,0,4.37-1.3,4.37-2.75
		c0-0.2-0.06-0.4-0.11-0.6c-0.34-0.57-0.94-0.82-1.59-0.82c-1.56,0-3.63,1.11-4.68,2.01c-3.06,1.96-14.06,9.1-19.28,9.1
		c-0.77,0-1.36-0.11-1.87-0.51c-0.45-0.4-0.65-0.91-0.65-1.56c0-1.81,1.62-4.37,3.06-5.81c0.51,0.54,1.36,0.79,2.21,0.79
		c2.21,0,4.82-1.45,4.82-3c0-0.2-0.09-0.45-0.14-0.65c-0.31-0.65-0.91-0.91-1.7-0.91c-0.57,0-1.3,0.14-2.01,0.45
		c-3.32,1.25-6.77,4.82-7.34,8.48l-0.09,0.65c0,0.96,0.34,1.81,1.19,2.47C357.89,519.65,358.74,519.85,359.64,519.85L359.64,519.85z
		 M381.19,510.75c-0.37,0-0.77-0.09-1.11-0.34c0.74-0.6,2.66-1.7,3.71-1.7c0.2,0,0.4,0.09,0.54,0.2l0.06,0.2
		C384.39,509.75,382.63,510.75,381.19,510.75L381.19,510.75z M362.65,510.61c-0.54,0-0.99-0.14-1.36-0.4
		c0.51-0.45,3.03-2.07,4.34-2.07c0.34,0,0.6,0.11,0.65,0.37l0.09,0.14C366.36,509.24,364.26,510.61,362.65,510.61L362.65,510.61z"/>
</g>
</svg>
