<svg xmlns="http://www.w3.org/2000/svg" width="30" height="23" viewBox="0 0 30 23"><g><g><path fill="#acb0c5" d="M3.05 10.344c.375-.072.7-.239.938-.47.239.231.563.398.937.47v5.088c0 .259.19.47.425.47s.425-.211.425-.47v-5.088c.374-.072.699-.239.937-.47.325.315.81.51 1.362.51s1.037-.195 1.362-.51c.24.231.564.398.938.47v7.627h-4.6v-.533c0-.26-.19-.47-.424-.47-.234 0-.425.21-.425.47v4.044H3.051zM1.69 8.913v-.534h1.874v.534c0 .217-.365.533-.937.533-.572 0-.937-.316-.937-.533zm3.661.533c-.572 0-.937-.316-.937-.533v-.534h1.875v.534c0 .217-.366.533-.938.533zM7.137 8.38h1.875v.534c0 .217-.365.533-.938.533-.572 0-.937-.316-.937-.533zm19.553-7.02c.016 0 .03.014.03.032v2.038h-.484c-.235 0-.425.21-.425.469 0 .26.19.469.425.469h.614l1.043 3.074H1.877L2.92 4.367h21.5c.234 0 .424-.21.424-.47 0-.258-.19-.468-.424-.468H3.05V1.39c0-.018.014-.033.03-.033zm1.391 7.554c0 .217-.365.533-.937.533-.572 0-.937-.316-.937-.533v-.534h1.874zm-13.62 0c0 .217-.366.533-.938.533s-.938-.316-.938-.533v-.534h1.875zm-1.422 7.99h10.956v1.068H13.039zm12.318-7.99c0 .217-.365.533-.937.533-.572 0-.938-.316-.938-.533v-.534h1.875zm-2.724 0c0 .217-.365.533-.937.533-.573 0-.938-.316-.938-.533v-.534h1.875zm-2.724 0c0 .217-.366.533-.938.533s-.937-.316-.937-.533v-.534h1.875v.534zm-3.662 1.472c.552 0 1.037-.196 1.362-.51.325.314.81.51 1.362.51s1.037-.196 1.362-.51c.326.314.811.51 1.362.51.552 0 1.037-.196 1.363-.51.238.23.563.397.937.47v5.62H13.039v-5.633c.154.034.316.053.484.053.551 0 1.037-.196 1.362-.51.325.314.81.51 1.362.51zm.937-1.472c0 .217-.365.533-.937.533-.572 0-.937-.316-.937-.533v-.534h1.874zm-5.96 1.431c.373-.072.698-.239.937-.47l.03.03-.001.012v8.525c0 .259.19.469.425.469H24.42c.234 0 .425-.21.425-.47v-8.096c.373-.072.698-.24.937-.47.238.23.563.398.937.47v11.138H11.224zM9.86 8.38h1.875v.534c0 .217-.365.533-.937.533-.572 0-.938-.316-.938-.533zM5.775 18.91h4.599v2.573h-4.6zm21.794 2.573V10.344c.79-.153 1.362-.727 1.362-1.431V7.91a.514.514 0 0 0-.027-.165l-1.335-3.932V1.391c0-.536-.394-.971-.879-.971H3.08c-.485 0-.879.435-.879.97v2.423L.866 7.745a.51.51 0 0 0-.027.165v1.003c0 .704.572 1.278 1.362 1.431v11.138H.81c-.235 0-.425.21-.425.469s.19.469.425.469h28.15c.235 0 .425-.21.425-.47 0-.258-.19-.468-.425-.468z"/></g></g></svg>